<svg width="153" height="93" viewBox="0 0 153 93" fill="none" xmlns="http://www.w3.org/2000/svg">
<ellipse cx="79.1274" cy="44.8364" rx="42.5903" ry="44.8364" fill="#7A60A6"/>
<path fill-rule="evenodd" clip-rule="evenodd" d="M120.57 34.5428C118.219 24.0114 112.312 14.7384 103.949 8.45056C104.247 9.50158 110.001 30.7592 93.6273 52.234C77.2134 73.7675 47.3044 72.9142 45.9727 72.8644C58.4179 89.19 79.9448 94.2636 97.8143 85.0829C115.684 75.9022 125.13 54.9159 120.563 34.5428H120.57Z" fill="#6D5298"/>
<path fill-rule="evenodd" clip-rule="evenodd" d="M117.391 34.5801C121.336 52.214 113.998 70.5095 99.2423 79.831C84.4865 89.1525 65.6988 87.3606 52.7744 75.3992C68.4412 83.7406 87.3846 80.9309 100.252 68.3571C113.12 55.7834 117.19 36.105 110.454 19.0374C113.771 23.6517 116.135 28.9461 117.391 34.5801H117.391Z" fill="#5F4589"/>
<path opacity="0.25" fill-rule="evenodd" clip-rule="evenodd" d="M42.3498 40.5621C40.6584 32.9965 45.1131 25.4199 52.2997 23.6392C59.4862 21.8586 66.6833 26.5481 68.3748 34.1137C70.0663 41.6792 65.6118 49.2559 58.4253 51.0367C54.9742 51.8919 51.3416 51.2688 48.3269 49.3044C45.3121 47.34 43.1622 44.1953 42.3498 40.5621Z" fill="#F298BB"/>
<path opacity="0.25" fill-rule="evenodd" clip-rule="evenodd" d="M45.3676 35.7596C44.6533 32.5656 45.8369 29.2331 48.3665 27.316C50.896 25.3989 54.2737 25.2748 56.9242 27.0016C59.5746 28.7285 60.9759 31.9661 60.4746 35.2046C59.9732 38.4432 57.668 41.0451 54.634 41.7967C50.4918 42.822 46.3438 40.1197 45.3676 35.7596Z" fill="#F298BB"/>
<path opacity="0.25" fill-rule="evenodd" clip-rule="evenodd" d="M75.338 23.2078C73.6467 15.6422 78.1014 8.06562 85.288 6.28498C92.4745 4.50428 99.6715 9.19384 101.363 16.7594C103.055 24.3249 98.6001 31.9016 91.4136 33.6825C87.9625 34.5376 84.3299 33.9145 81.3151 31.9501C78.3003 29.9857 76.1504 26.841 75.338 23.2078Z" fill="#F298BB"/>
<path opacity="0.25" fill-rule="evenodd" clip-rule="evenodd" d="M79.2593 17.6088C78.5921 14.626 79.6975 11.5137 82.0599 9.72332C84.4224 7.93295 87.5766 7.8171 90.0518 9.42976C92.5271 11.0425 93.8356 14.0661 93.3676 17.0906C92.8995 20.1151 90.7467 22.545 87.9131 23.2469C84.0446 24.2054 80.1703 21.6813 79.2593 17.6088Z" fill="#F298BB"/>
<path opacity="0.25" fill-rule="evenodd" clip-rule="evenodd" d="M58.8902 14.8743C58.2759 12.1382 59.2883 9.28206 61.4551 7.63863C63.622 5.99525 66.5161 5.8887 68.7866 7.36865C71.0574 8.84861 72.2569 11.6234 71.8254 14.3979C71.3941 17.1724 69.4167 19.3998 66.8164 20.0403C65.1146 20.4621 63.3233 20.1547 61.8368 19.1858C60.3502 18.217 59.2903 16.666 58.8902 14.8743Z" fill="#F298BB"/>
<path opacity="0.25" fill-rule="evenodd" clip-rule="evenodd" d="M60.3361 13.1518C60.0045 11.6783 60.5495 10.1399 61.7163 9.25461C62.8832 8.36935 64.4419 8.31188 65.6648 9.10897C66.8876 9.90611 67.5333 11.4006 67.3008 12.8948C67.068 14.389 66.0025 15.5882 64.602 15.9325C62.695 16.4013 60.7874 15.1577 60.3361 13.1518Z" fill="#F298BB"/>
<path opacity="0.15" fill-rule="evenodd" clip-rule="evenodd" d="M93.2141 8.46126C88.0751 5.58964 68.7015 1.66167 54.2436 17.3683C42.4629 30.3279 39.923 49.7881 47.9472 65.6123C46.722 60.1328 46.3058 41.0289 57.6804 26.5265C69.055 12.0241 85.5639 9.24867 93.2141 8.46126Z" fill="#D6B6D8"/>
<path fill-rule="evenodd" clip-rule="evenodd" d="M93.2119 8.46127C93.2119 8.46127 69.6824 0.938361 54.4496 19.6128C39.2169 38.2873 46.2222 62.5179 47.9466 65.6033C47.9466 65.6033 33.6021 40.0296 52.3732 17.6996C69.8974 -3.1464 93.2119 8.46127 93.2119 8.46127Z" fill="#D7CEE7"/>
<path fill-rule="evenodd" clip-rule="evenodd" d="M152.604 88.9987C150.286 94.1416 131.31 90.1209 105.598 79.9277C94.9776 75.7147 83.2002 70.4436 70.9742 64.3369C58.3117 58.0093 46.607 51.5019 36.554 45.3008C13.4155 31.0389 -1.07471 18.414 1.21318 13.3424C3.38601 8.5326 20.1349 11.7498 43.348 20.5322C42.5511 21.8369 41.8168 23.183 41.1482 24.5652C31.7314 21.7061 25.4905 21.0453 24.4957 23.2542C23.4499 25.57 28.3877 30.6078 37.2173 36.8926C48.8953 44.9 61.1021 52.0183 73.7446 58.1928C85.9146 64.3943 98.4703 69.7186 111.326 74.1292C122.191 77.6831 129.513 78.6826 130.598 76.2776C131.63 73.9832 126.799 69.0166 118.118 62.812C118.7 61.415 119.216 59.988 119.663 58.5366C141.404 72.184 154.809 84.1087 152.604 88.9987Z" fill="#D5E9F9"/>
<path fill-rule="evenodd" clip-rule="evenodd" d="M151.631 90.4342C149.311 95.5772 130.335 91.5565 104.624 81.3633C94.0024 77.1502 82.2266 71.8791 69.9989 65.7725C57.3364 59.4449 45.6318 52.9374 35.5788 46.7363C12.4384 32.4744 -2.04972 19.8496 0.236308 14.778C2.40914 9.96817 19.2595 13.2459 42.4676 22.0265C41.7172 23.3346 41.0426 24.6892 40.4473 26.0827C31.0305 23.2218 24.5155 22.4789 23.5256 24.688C22.4817 27.0038 27.4177 32.0416 36.2491 38.3263C47.9269 46.334 60.1337 53.4523 72.7764 59.6268C84.9462 65.8284 97.502 71.1527 110.357 75.5629C121.223 79.1169 128.545 80.1163 129.631 77.7114C130.663 75.417 126.089 70.6125 117.407 64.4079C117.989 63.0113 118.664 61.6877 119.111 60.2358C140.846 73.8814 153.836 85.546 151.631 90.4342Z" fill="#F49639"/>
<path fill-rule="evenodd" clip-rule="evenodd" d="M152.604 88.9987C150.286 94.1416 131.31 90.1209 105.598 79.9277C94.9776 75.7147 83.2002 70.4436 70.9742 64.3369C58.3117 58.0093 46.607 51.5019 36.554 45.3008C13.4155 31.0389 -1.07471 18.414 1.21318 13.3424C3.38601 8.5326 20.1349 11.7498 43.348 20.5322C42.5511 21.8369 41.8168 23.183 41.1482 24.5652C31.7314 21.7061 25.4905 21.0453 24.4957 23.2542C23.4499 25.57 28.3877 30.6078 37.2173 36.8926C48.8953 44.9 61.1021 52.0183 73.7446 58.1928C85.9146 64.3943 98.4703 69.7186 111.326 74.1292C122.191 77.6831 129.513 78.6826 130.598 76.2776C131.63 73.9832 126.799 69.0166 118.118 62.812C118.7 61.415 119.216 59.988 119.663 58.5366C141.404 72.184 154.809 84.1087 152.604 88.9987Z" fill="#FFE568"/>
<path fill-rule="evenodd" clip-rule="evenodd" d="M142.588 76.1848C146.913 80.6063 153.937 85.8045 150.438 88.9058C146.939 92.0073 119.471 86.4119 67.2227 60.8274C67.2227 60.8274 120.274 82.4412 133.989 84.9814C147.595 87.5003 149.506 85.5639 142.588 76.1848Z" fill="#FCC231"/>
<path fill-rule="evenodd" clip-rule="evenodd" d="M26.248 15.8362C20.4659 14.6052 6.21288 10.9266 3.48006 13.7234C0.747233 16.5202 17.0477 31.1474 22.9314 34.6371C22.9314 34.6371 8.30784 22.21 7.67493 16.4793C7.20108 12.2004 26.248 15.8362 26.248 15.8362Z" fill="#FFEDB2"/>
<path fill-rule="evenodd" clip-rule="evenodd" d="M41.027 22.8602C37.3626 21.6625 33.6288 20.714 29.8487 20.0207C24.4609 19.1193 18.0289 18.2197 18.6906 22.0764C19.3522 25.9331 24.2595 30.6645 34.1993 37.931C44.1391 45.1973 60.9219 55.1286 60.9219 55.1286C60.9219 55.1286 36.3566 42.1421 26.9483 35.1947C17.54 28.2472 11.861 21.2249 13.1741 18.2019C14.8121 14.4306 29.7218 16.9549 41.714 21.9428L41.027 22.8602Z" fill="#FFDA60"/>
</svg>
